<mxfile host="app.diagrams.net" modified="2024-06-17T07:50:41.675Z" agent="Mozilla/5.0 (Macintosh; Intel Mac OS X 10_15_7) AppleWebKit/537.36 (KHTML, like Gecko) Chrome/124.0.0.0 Safari/537.36" version="24.4.9" etag="2YDVk8hSyo8jIKSJrTLC" type="github">
  <diagram name="第 1 页" id="_8q1ItxULbBea5RZVFqj">
    <mxGraphModel>
      <root>
        <mxCell id="0" />
        <mxCell id="1" parent="0" />
      </root>
    </mxGraphModel>
  </diagram>
</mxfile>
